<?xml version="1.0" encoding="UTF-8"?>
<svg xmlns="http://www.w3.org/2000/svg" width="1900" height="300" viewBox="0 0 1900 300" fill="none">
  <path d="M253.08 192.81C257.46 189.72 261.9 186.46 266.11 183.09C270.32 179.78 274.59 176.35 278.64 172.64C282.74 169.16 286.73 165.5 290.66 161.63C294.54 157.81 298.41 153.93 302.06 149.94C305.88 145.9 309.48 141.85 312.9 137.69C320.09 129.15 326.72 120.22 332.84 110.89C329.53 97.5197 324.58 84.7697 318.18 72.9097L317.79 72.6797C309.64 87.6797 300.09 101.89 289.42 115.04C285.99 119.2 282.4 123.24 278.75 127.23C274.65 123.64 270.44 120.15 266.17 116.78C261.9 113.46 257.57 110.21 253.08 107.17C246.79 113.86 240.22 120.15 233.19 126.1C231.62 127.39 230.1 128.68 228.53 129.86C233.19 132.84 237.74 136.1 242.24 139.52C246.62 142.78 250.95 146.32 255.11 149.91C250.95 153.56 246.63 157.04 242.24 160.3C237.75 163.84 233.2 166.99 228.48 170.08C223.65 173.34 218.76 176.37 213.7 179.24C208.87 175.59 203.92 172.05 198.87 168.79C193.42 165.31 187.8 162.05 182.07 159.13C167.63 166.04 152.46 171.49 136.9 175.31C145.21 178.01 153.36 181.27 161.28 185.2C167.74 188.23 173.98 191.72 180.04 195.54C173.41 198.24 166.73 200.71 160.04 202.73C133.86 210.93 106.5 215.2 78.9198 215.2H24.7598C29.8198 226.83 36.2198 237.73 43.6898 247.78H78.9198C118.08 247.78 156.96 240.14 192.97 225.53C198.53 223.23 203.98 220.87 209.37 218.28C212.8 216.65 216.22 215.02 219.54 213.22C226.23 209.74 232.86 205.86 239.32 201.87C243.93 198.95 248.59 195.92 253.08 192.77V192.81Z" fill="#031314"></path>
  <path d="M312.91 162.3C309.37 166.07 305.72 169.83 301.95 173.37C297.9 177.41 293.75 181.24 289.42 185C300.15 198.09 309.64 212.19 317.79 227.19L318.3 226.91C324.65 215.11 329.54 202.53 332.85 189.21C332.85 189.21 332.91 189.15 332.85 189.15C326.73 179.82 320.04 170.84 312.91 162.3Z" fill="#031314"></path>
  <path d="M162.4 150C169.09 147.3 175.71 144.27 182.12 140.84C187.85 137.92 193.47 134.66 198.92 131.18C203.98 127.92 208.98 124.38 213.75 120.73C216.78 118.43 219.71 116.07 222.68 113.65C228.52 108.65 234.08 103.42 239.31 97.9804C243.13 94.1004 246.78 89.9504 250.26 85.6804C264.36 68.7104 275.88 49.7204 284.36 29.5004C276.05 21.8604 266.94 15.1204 257.22 9.44043C249.13 31.3504 236.94 51.6904 221.32 69.3304C217.61 73.6004 213.62 77.7604 209.47 81.6304C204.08 78.9904 198.68 76.6304 193.23 74.3304C157.05 59.6104 118.73 52.2004 78.9002 52.2004H43.6702C36.2002 62.2604 29.7902 73.1604 24.7402 84.7804H78.9002C106.99 84.7804 134.01 88.9404 160.14 97.2004H160.2C167 99.2804 173.68 101.69 180.2 104.34C174.13 108.22 167.95 111.7 161.49 114.73C153.51 118.61 145.31 121.87 136.88 124.67C118.23 130.63 98.7302 133.72 78.9002 133.72H11.9502C11.4402 139.06 11.1602 144.51 11.1602 150.01C11.1602 155.51 11.4402 160.97 11.9502 166.3H78.9202C107.74 166.3 136.11 160.68 162.4 150.01V150Z" fill="#031314"></path>
  <path d="M227.12 227.7C225.21 228.65 223.3 229.67 221.33 230.62C236.95 248.2 249.14 268.54 257.23 290.56H257.29C267.01 284.89 276.05 278.14 284.37 270.5C275.89 250.22 264.37 231.23 250.27 214.32C242.8 219.1 235.05 223.53 227.12 227.69V227.7Z" fill="#031314"></path>
  <path d="M530.82 135.2L491.01 124.44C469.22 119.6 457.38 112.06 457.38 97V93.77C457.38 78.44 469.75 71.71 496.66 71.71C525.98 71.71 537.55 79.51 537.55 99.15V108.57H580.32V100.77C580.32 59.07 551.8 36.21 496.39 36.21C440.98 36.21 414.34 57.73 414.34 97.81C414.34 130.63 434.25 148.11 465.72 157.26L505.27 168.29C532.71 174.48 542.12 180.66 542.39 198.42V203.26C542.39 220.75 529.75 228.01 500.96 228.01C466.26 228.01 452.27 218.6 452.27 193.85V182.01H409.5V188.47C409.5 237.7 437.21 263.79 500.16 263.79C563.11 263.79 585.44 243.61 585.44 197.08C585.44 160.23 565.8 144.35 530.83 135.21L530.82 135.2Z" fill="#031314"></path>
  <path d="M600.29 261.1H746.9V224.25H642.25V168.29H739.36V131.71H642.25V75.7504H746.9V38.9004H600.29V261.1Z" fill="#031314"></path>
  <path d="M827.33 38.9004L757.93 261.1H802.05L812.81 224.25H899.16L909.92 261.1H954.31L884.64 38.9004H827.34H827.33ZM823.3 187.66L853.97 82.4804L856.12 76.8304L858 82.4804L888.67 187.66H823.3Z" fill="#031314"></path>
  <path d="M1123.52 72.8C1150.42 72.8 1170.33 85.71 1172.21 109.92L1172.48 125.79H1216.06L1215.79 115.03C1212.83 69.3 1177.59 36.21 1122.98 36.21C1058.68 36.21 1026.41 77.91 1026.41 133.59V166.95C1026.41 222.37 1058.96 263.79 1118.95 263.79C1150.69 263.79 1172.22 251.68 1185.67 232.58L1191.32 261.1H1216.07V143.54H1109V177.7H1171.41V187.92C1167.11 212.4 1150.43 227.2 1120.57 227.2C1083.98 227.2 1069.46 202.18 1069.46 171.25V128.48C1069.46 98.35 1083.45 72.8 1123.53 72.8H1123.52Z" fill="#031314"></path>
  <path d="M1280.83 38.9004H1240.21V261.1H1280.83V38.9004Z" fill="#031314"></path>
  <path d="M1379.49 83.5498C1326.76 83.5498 1300.67 114.22 1300.67 163.72V183.63C1300.67 233.13 1326.76 263.8 1379.49 263.8C1432.22 263.8 1458.31 233.13 1458.31 183.63V163.72C1458.31 114.22 1432.49 83.5498 1379.49 83.5498ZM1416.88 187.12C1416.88 212.41 1407.47 229.09 1379.49 229.09C1351.51 229.09 1342.1 212.41 1342.1 187.12V160.22C1342.1 135.2 1351.52 118.25 1379.49 118.25C1407.46 118.25 1416.88 135.2 1416.88 160.22V187.12Z" fill="#031314"></path>
  <path d="M1568.54 83.5504C1541.91 83.5504 1526.58 95.6604 1518.51 107.76V38.9004H1478.16V261.1H1518.51V240.92C1527.65 252.49 1543.26 263.79 1569.08 263.79C1611.85 263.79 1637.41 232.58 1637.41 191.43V157.54C1637.41 113.69 1611.59 83.5604 1568.54 83.5604V83.5504ZM1595.71 187.93C1595.71 209.99 1584.68 229.09 1557.24 229.09C1529.8 229.09 1518.5 210.26 1518.5 188.2V159.42C1518.5 137.36 1530.34 118.26 1557.24 118.26C1584.14 118.26 1595.71 137.63 1595.71 159.42V187.94V187.93Z" fill="#031314"></path>
  <path d="M1732.03 83.5498C1681.99 83.5498 1655.9 105.61 1655.9 146.77V151.88H1696.52V143.54C1696.52 127.13 1706.74 117.45 1732.57 117.45C1755.17 117.45 1762.97 125.52 1762.97 134.67V136.01C1762.97 149.46 1748.17 153.5 1724.77 159.41L1705.67 164.25C1679.58 171.24 1650.25 183.89 1650.25 217.78C1650.25 248.72 1669.89 263.78 1702.44 263.78C1727.46 263.78 1750.32 255.71 1764.04 234.46V261.09H1803.32V142.46C1803.32 106.68 1785.56 83.5498 1732.03 83.5498ZM1762.96 191.42C1759.46 215.63 1740.36 229.89 1715.08 229.89C1698.67 229.89 1690.87 224.78 1690.87 212.94C1690.87 202.45 1698.67 197.34 1714.27 192.77L1731.49 188.2C1746.55 183.36 1758.93 180.67 1762.96 170.98V191.42Z" fill="#031314"></path>
  <path d="M1866.57 38.9004H1825.95V261.1H1866.57V38.9004Z" fill="#031314"></path>
</svg>
